# xmcd
#
# Track frame offsets: 
#        150
#        21635
#        40155
#        60700
#        84390
#        105197
#        126762
#        139632
#        169802
#        187172
#
# Disc length: 2624 seconds
#
# Revision: 5
# Processed by: cddbd v1.5.2PL0 Copyright (c) Steve Scherf et al.
# Submitted via: ExactAudioCopy v0.99pb5
#
DISCID=840a3e0a
DTITLE=A-Ha - Stay On These Roads
DYEAR=1988
DGENRE=Synthpop
TTITLE0=Stay On These Roads
TTITLE1=The Blood That Moves The Body
TTITLE2=Touchy!
TTITLE3=This Alone Is Love
TTITLE4=Hurry Home
TTITLE5=The Living Daylights
TTITLE6=There's Never A Forever Thing
TTITLE7=Out Of Blue Comes Green
TTITLE8=You Are The One
TTITLE9=You'll End Up Crying
EXTD=
EXTT0=
EXTT1=
EXTT2=
EXTT3=
EXTT4=
EXTT5=
EXTT6=
EXTT7=
EXTT8=
EXTT9=
PLAYORDER=
